<?xml version="1.0" encoding="UTF-8"?>
<svg width="32px" height="32px" viewBox="0 0 32 32" version="1.1" xmlns="http://www.w3.org/2000/svg" xmlns:xlink="http://www.w3.org/1999/xlink">
    <!-- Generator: Sketch 53.2 (72643) - https://sketchapp.com -->
    <title>Facebook</title>
    <desc>Created with Sketch.</desc>
    <g id="Facebook" stroke="none" stroke-width="1" fill="none" fill-rule="evenodd">
        <g id="Group-6">
            <polygon id="Fill-92" fill="#E3E2E4" points="0 32 32 32 32 0 0 0"></polygon>
            <path d="M23.3751562,8 L9.6253125,8 C9.27984375,8 9,8.27984375 9,8.62484375 L9,22.3751563 C9,22.7201563 9.27984375,23 9.6253125,23 L16.96875,23 L16.96875,17.375 L15.09375,17.375 L15.09375,15.03125 L16.96875,15.03125 L16.96875,13.15625 C16.96875,11.2189062 18.1954688,10.2654687 19.92375,10.2654687 C20.7515625,10.2654687 21.463125,10.3273438 21.6703125,10.3545313 L21.6703125,12.3795312 L20.4717188,12.38 C19.531875,12.38 19.3125,12.8267188 19.3125,13.4820313 L19.3125,15.03125 L21.65625,15.03125 L21.1875,17.375 L19.3125,17.375 L19.35,23 L23.3751562,23 C23.7201562,23 24,22.7201563 24,22.3751563 L24,8.62484375 C24,8.27984375 23.7201562,8 23.3751562,8" id="Fill-3" fill="#444444"></path>
        </g>
    </g>
</svg>