<?xml version="1.0" encoding="UTF-8"?>
<svg width="32px" height="32px" viewBox="0 0 32 32" version="1.1" xmlns="http://www.w3.org/2000/svg" xmlns:xlink="http://www.w3.org/1999/xlink">
    <!-- Generator: Sketch 53.2 (72643) - https://sketchapp.com -->
    <title>Instagram</title>
    <desc>Created with Sketch.</desc>
    <g id="Instagram" stroke="none" stroke-width="1" fill="none" fill-rule="evenodd">
        <g id="Group-10">
            <g id="Group-5" fill="#E3E2E4">
                <polygon id="Fill-114" points="0 32 32 32 32 0 0 0"></polygon>
            </g>
            <path d="M21.0384615,22.5 L9.96153846,22.5 C9.70676923,22.5 9.5,22.29 9.5,22.03125 L9.5,15 L11.3461538,15 C11.1056923,15.3515625 11.0244615,16.0073438 11.0244615,16.4235938 C11.0244615,18.93375 13.04,20.9760938 15.5170769,20.9760938 C17.9946154,20.9760938 20.0101538,18.93375 20.0101538,16.4235938 C20.0101538,16.0073438 19.952,15.3614062 19.6538462,15 L21.5,15 L21.5,22.03125 C21.5,22.29 21.2932308,22.5 21.0384615,22.5 M15.4997562,13.5 C17.1568619,13.5 18.5,14.843269 18.5,16.4997557 C18.5,18.156731 17.1568619,19.5 15.4997562,19.5 C13.8431381,19.5 12.5,18.156731 12.5,16.4997557 C12.5,14.843269 13.8431381,13.5 15.4997562,13.5 M18.95,11.25 L20.3,11.25 C20.5484,11.25 20.75,11.4516 20.75,11.7 L20.75,13.05 C20.75,13.2984 20.5484,13.5 20.3,13.5 L18.95,13.5 C18.7016,13.5 18.5,13.2984 18.5,13.05 L18.5,11.7 C18.5,11.4516 18.7016,11.25 18.95,11.25 M21.216875,9 L9.783125,9 C8.79828125,9 8,9.79640625 8,10.7789062 L8,22.2210938 C8,23.2035938 8.79828125,24 9.783125,24 L21.216875,24 C22.2017188,24 23,23.2035938 23,22.2210938 L23,10.7789062 C23,9.79640625 22.2017188,9 21.216875,9" id="Fill-23" fill="#444444"></path>
        </g>
    </g>
</svg>