<?xml version="1.0" encoding="UTF-8" standalone="no"?><!DOCTYPE svg PUBLIC "-//W3C//DTD SVG 1.1//EN" "http://www.w3.org/Graphics/SVG/1.1/DTD/svg11.dtd"><svg width="100%" height="100%" viewBox="0 0 1128 268" version="1.1" xmlns="http://www.w3.org/2000/svg" xmlns:xlink="http://www.w3.org/1999/xlink" xml:space="preserve" xmlns:serif="http://www.serif.com/" style="fill-rule:evenodd;clip-rule:evenodd;stroke-linejoin:round;stroke-miterlimit:2;"><rect x="112.682" y="0" width="56.345" height="56.343" style="fill:#b8b628;"/><rect x="169.027" y="56.343" width="56.34" height="56.344" style="fill:#bd251f;"/><rect x="56.342" y="56.345" width="56.342" height="56.342" style="fill:#39a292;"/><rect x="56.342" y="168.971" width="56.342" height="56.342" style="fill:#6a9de2;"/><rect x="169.027" y="168.973" width="56.34" height="56.342" style="fill:#aa62b2;"/><rect x="0" y="112.63" width="56.342" height="56.343" style="fill:#fcea3d;"/><path d="M234.313,261.655c26.959,-3.856 53.669,-9.457 78.495,-15.549c24.83,-6.097 47.768,-12.769 67.283,-18.934c2.441,-0.77 4.83,-1.523 7.166,-2.26c2.325,-0.766 4.598,-1.516 6.812,-2.246c4.429,-1.473 8.633,-2.852 12.566,-4.203c7.85,-2.752 14.698,-5.143 20.293,-7.238c11.184,-4.219 17.498,-6.846 17.34,-7.305c-0.16,-0.459 -6.77,1.307 -18.187,4.77c-5.733,1.723 -12.663,3.807 -20.599,6.193c-3.98,1.18 -8.213,2.432 -12.672,3.752c-2.229,0.666 -4.518,1.348 -6.856,2.045c-2.347,0.676 -4.748,1.365 -7.2,2.07c-19.598,5.682 -42.525,12.035 -67.248,18.048c-24.718,6.007 -51.223,11.753 -77.928,16.073c-27.504,4.49 -50.888,6.744 -72.168,7.511c-10.642,0.337 -20.756,0.313 -30.605,-0.112c-9.842,-0.49 -19.416,-1.367 -28.938,-2.795c-9.522,-1.431 -19,-3.414 -28.56,-6.259c-9.558,-2.829 -19.185,-6.622 -28.729,-11.862c-4.774,-2.613 -9.481,-5.664 -14.054,-9.197c-4.575,-3.527 -8.993,-7.578 -13.055,-12.25c-4.072,-4.652 -7.801,-9.928 -10.847,-15.867c-1.524,-2.965 -2.881,-6.094 -4.004,-9.377c-1.09,-3.289 -2.039,-6.723 -2.427,-10.32c0.351,3.602 1.265,7.049 2.318,10.357c1.092,3.301 2.416,6.449 3.91,9.443c2.987,5.99 6.665,11.336 10.698,16.066c4.02,4.75 8.412,8.887 12.967,12.505c4.552,3.625 9.248,6.77 14.017,9.481c9.531,5.437 19.174,9.431 28.756,12.463c9.587,3.052 19.104,5.242 28.675,6.89c9.573,1.638 19.205,2.731 29.116,3.44c9.916,0.646 20.109,0.894 30.841,0.781c21.458,-0.308 45.061,-2.097 72.824,-6.114" style="fill-rule:nonzero;"/><path d="M77.157,136.581c-0.436,-0.055 -0.872,-0.164 -1.363,-0.164c-4.088,0 -5.668,4.523 -5.668,8.012l0,15.261l-4.688,0l0,-19.73c0,-2.508 -0.163,-5.015 -0.218,-7.522l4.361,0l0.109,4.306c1.254,-2.726 3.543,-4.85 6.65,-4.85c0.381,0 0.762,0.108 1.144,0.163l-0.327,4.524Z" style="fill-rule:nonzero;"/><path d="M89.734,127.861l-3.325,-0.001l4.033,-7.412l4.307,0l-5.015,7.413Zm-1.09,7.575c-3.87,0 -5.287,5.179 -5.287,8.667l10.138,0c0,-3.325 -0.872,-8.667 -4.851,-8.667m-5.287,11.828c0,4.469 1.581,9.374 7.031,9.374c2.18,0 4.633,-0.871 6.431,-2.07l0.328,4.196c-2.126,0.982 -4.851,1.527 -7.195,1.527c-8.503,0 -11.391,-6.704 -11.391,-14.335c0,-6.704 2.888,-14.062 10.083,-14.062c7.467,0 9.429,7.467 9.429,13.626l0,1.744l-14.716,0Z" style="fill-rule:nonzero;"/><path d="M108.482,160.29c-2.671,0 -5.232,-0.437 -7.685,-1.309l0.436,-4.414c2.125,1.145 4.415,1.908 6.704,1.908c2.071,0 4.36,-1.472 4.36,-3.816c0,-5.613 -11.228,-4.687 -11.228,-13.136c0,-5.068 4.579,-7.629 8.885,-7.629c1.853,0 3.924,0.38 5.777,0.98l-0.327,4.088c-1.798,-0.708 -3.325,-1.254 -5.233,-1.254c-2.07,0 -4.251,1.309 -4.251,3.543c0,5.832 11.228,4.524 11.228,12.918c0,5.068 -3.706,8.121 -8.666,8.121" style="fill-rule:nonzero;"/><path d="M129.955,135.436c-3.87,0 -5.287,5.179 -5.287,8.667l10.138,0c0,-3.325 -0.872,-8.667 -4.851,-8.667m-5.287,11.828c0,4.469 1.58,9.374 7.031,9.374c2.18,0 4.633,-0.871 6.431,-2.07l0.327,4.196c-2.125,0.982 -4.85,1.526 -7.194,1.526c-8.503,0 -11.391,-6.704 -11.391,-14.334c0,-6.705 2.888,-14.062 10.083,-14.062c7.467,0 9.429,7.467 9.429,13.626l0,1.744l-14.716,0Z" style="fill-rule:nonzero;"/><path d="M156.933,146.282l-0.873,0c-4.305,0 -9.32,0.764 -9.32,5.996c0,2.615 1.744,4.359 4.416,4.359c4.032,0 5.776,-3.869 5.776,-7.466l0,-2.889Zm0.327,13.408l-0.218,-3.815c-1.853,2.888 -3.87,4.415 -7.358,4.415c-4.469,0 -7.685,-3.379 -7.685,-7.794c0,-7.304 7.194,-9.32 13.135,-9.32l1.799,0l0,-1.636c0,-3.542 -1.308,-5.995 -5.395,-5.995c-2.29,0 -5.07,1.144 -7.085,2.671l-0.328,-4.198c2.562,-1.253 4.851,-2.125 8.067,-2.125c6.703,0 9.32,3.542 9.32,9.211l0,12.645c0,2.235 0.163,4.088 0.273,5.941l-4.524,0Z" style="fill-rule:nonzero;"/><path d="M182.166,159.691l-0.109,-3.924c-1.254,2.507 -3.706,4.524 -7.031,4.524c-5.56,0 -7.467,-4.361 -7.467,-9.321l0,-18.531l4.687,0l0,18.368c0,2.889 1.09,5.559 4.252,5.559c3.542,0 5.123,-3.761 5.123,-6.704l0,-17.223l4.687,0l0,19.731c0,2.506 0.164,5.014 0.218,7.521l-4.36,0Z" style="fill-rule:nonzero;"/><path d="M213.066,135.708c-4.796,0 -5.396,6.704 -5.396,10.247c0,3.434 0.709,10.52 5.396,10.52c4.96,0 5.614,-6.487 5.614,-10.52c0,-3.978 -0.872,-10.247 -5.614,-10.247m5.941,23.982l-0.163,-3.978c-1.308,2.561 -3.598,4.578 -6.977,4.578c-7.249,0 -9.211,-8.558 -9.211,-14.335c0,-5.886 1.853,-14.061 9.211,-14.061c3.325,0 5.287,1.852 6.704,4.36l0,-15.861l4.742,0l0,31.776c0,2.779 0,4.742 0.164,7.521l-4.47,0Z" style="fill-rule:nonzero;"/><path d="M238.028,135.436c-3.87,0 -5.287,5.179 -5.287,8.667l10.138,0c0,-3.325 -0.872,-8.667 -4.851,-8.667m-5.287,11.828c0,4.469 1.58,9.374 7.031,9.374c2.18,0 4.633,-0.871 6.431,-2.07l0.327,4.196c-2.125,0.982 -4.851,1.526 -7.194,1.526c-8.503,0 -11.391,-6.704 -11.391,-14.334c0,-6.705 2.888,-14.062 10.083,-14.062c7.467,0 9.429,7.467 9.429,13.626l0,1.744l-14.716,0Z" style="fill-rule:nonzero;"/><path d="M257.865,160.29c-2.671,0 -5.232,-0.437 -7.685,-1.309l0.436,-4.414c2.125,1.145 4.415,1.908 6.704,1.908c2.071,0 4.36,-1.472 4.36,-3.816c0,-5.613 -11.228,-4.687 -11.228,-13.136c0,-5.068 4.579,-7.629 8.885,-7.629c1.853,0 3.924,0.38 5.777,0.98l-0.327,4.088c-1.799,-0.708 -3.324,-1.254 -5.233,-1.254c-2.071,0 -4.251,1.309 -4.251,3.543c0,5.832 11.228,4.524 11.228,12.918c0,5.068 -3.706,8.121 -8.666,8.121" style="fill-rule:nonzero;"/><path d="M308.986,159.691l0,-18.368c0,-2.671 -0.545,-5.56 -3.87,-5.56c-3.052,0 -4.741,3.816 -4.741,6.65l0,17.278l-4.633,0l0,-18.368c0,-2.671 -0.545,-5.56 -3.87,-5.56c-2.998,0 -4.688,3.816 -4.688,6.65l0,17.278l-4.687,0l0,-19.73c0,-2.454 -0.163,-5.07 -0.218,-7.522l4.36,0l0.163,3.979c1.254,-2.617 3.598,-4.524 6.596,-4.524c3.27,0 5.341,1.635 6.432,4.524c1.635,-2.726 3.814,-4.524 6.758,-4.524c5.124,0 7.085,3.597 7.085,8.939l0,18.858l-4.687,0Z" style="fill-rule:nonzero;"/><path d="M329.476,127.861l-3.324,-0.001l4.033,-7.412l4.306,0l-5.015,7.413Zm-1.09,7.575c-3.87,0 -5.287,5.179 -5.287,8.667l10.138,0c0,-3.325 -0.872,-8.667 -4.851,-8.667m-5.287,11.828c0,4.469 1.581,9.374 7.031,9.374c2.18,0 4.633,-0.871 6.432,-2.07l0.327,4.196c-2.126,0.982 -4.851,1.527 -7.195,1.527c-8.502,0 -11.392,-6.704 -11.392,-14.335c0,-6.704 2.89,-14.062 10.084,-14.062c7.467,0 9.429,7.467 9.429,13.626l0,1.744l-14.716,0Z" style="fill-rule:nonzero;"/><path d="M349.368,160.29c-4.196,0 -5.832,-2.671 -5.832,-6.541l0,-17.55l-3.924,0l0,-3.761l3.979,0l0,-5.996l4.632,-1.525l0,7.521l5.288,0l0,3.761l-5.288,0l0,16.405c0,2.126 0.164,3.761 2.726,3.761c0.872,0 1.635,-0.326 2.452,-0.762l0.327,3.924c-1.362,0.491 -2.998,0.763 -4.36,0.763" style="fill-rule:nonzero;"/><path d="M357.269,132.439l4.687,0l0,27.252l-4.687,0l0,-27.252Zm-0.055,-10.792l4.797,0l0,5.232l-4.797,0l0,-5.232Z" style="fill-rule:nonzero;"/><path d="M376.671,135.436c-3.87,0 -5.287,5.179 -5.287,8.667l10.138,0c0,-3.325 -0.872,-8.667 -4.851,-8.667m-5.287,11.828c0,4.469 1.581,9.374 7.031,9.374c2.18,0 4.633,-0.871 6.432,-2.07l0.327,4.196c-2.126,0.982 -4.852,1.526 -7.195,1.526c-8.502,0 -11.392,-6.704 -11.392,-14.334c0,-6.705 2.89,-14.062 10.084,-14.062c7.467,0 9.429,7.467 9.429,13.626l0,1.744l-14.716,0Z" style="fill-rule:nonzero;"/><path d="M402.341,136.581c-0.437,-0.055 -0.872,-0.164 -1.362,-0.164c-4.088,0 -5.669,4.523 -5.669,8.012l0,15.261l-4.688,0l0,-19.73c0,-2.508 -0.163,-5.015 -0.218,-7.522l4.361,0l0.109,4.306c1.253,-2.726 3.542,-4.85 6.65,-4.85c0.38,0 0.762,0.108 1.144,0.163l-0.327,4.524Z" style="fill-rule:nonzero;"/><path d="M411.823,160.29c-2.671,0 -5.232,-0.437 -7.686,-1.309l0.437,-4.414c2.126,1.145 4.415,1.908 6.704,1.908c2.071,0 4.36,-1.472 4.36,-3.816c0,-5.613 -11.228,-4.687 -11.228,-13.136c0,-5.068 4.579,-7.629 8.885,-7.629c1.853,0 3.924,0.38 5.777,0.98l-0.327,4.088c-1.799,-0.708 -3.324,-1.254 -5.233,-1.254c-2.071,0 -4.251,1.309 -4.251,3.543c0,5.832 11.228,4.524 11.228,12.918c0,5.068 -3.706,8.121 -8.666,8.121" style="fill-rule:nonzero;"/><path d="M448.173,136.581c-0.437,-0.055 -0.872,-0.164 -1.362,-0.164c-4.088,0 -5.669,4.523 -5.669,8.012l0,15.261l-4.688,0l0,-19.73c0,-2.508 -0.163,-5.015 -0.218,-7.522l4.361,0l0.109,4.306c1.253,-2.726 3.542,-4.85 6.65,-4.85c0.38,0 0.762,0.108 1.144,0.163l-0.327,4.524Z" style="fill-rule:nonzero;"/><path d="M464.128,146.282l-0.872,0c-4.306,0 -9.319,0.764 -9.319,5.996c0,2.615 1.744,4.359 4.414,4.359c4.033,0 5.777,-3.869 5.777,-7.466l0,-2.889Zm0.327,13.408l-0.218,-3.815c-1.853,2.888 -3.87,4.415 -7.358,4.415c-4.469,0 -7.685,-3.379 -7.685,-7.794c0,-7.304 7.195,-9.32 13.136,-9.32l1.798,0l0,-1.636c0,-3.542 -1.308,-5.995 -5.396,-5.995c-2.289,0 -5.069,1.144 -7.085,2.671l-0.328,-4.198c2.563,-1.253 4.852,-2.125 8.068,-2.125c6.704,0 9.32,3.542 9.32,9.211l0,12.645c0,2.235 0.163,4.088 0.273,5.941l-4.525,0Z" style="fill-rule:nonzero;"/><path d="M486.583,136.581c-0.437,-0.055 -0.872,-0.164 -1.362,-0.164c-4.088,0 -5.669,4.523 -5.669,8.012l0,15.261l-4.688,0l0,-19.73c0,-2.508 -0.163,-5.015 -0.218,-7.522l4.361,0l0.109,4.306c1.253,-2.726 3.542,-4.85 6.65,-4.85c0.38,0 0.762,0.108 1.144,0.163l-0.327,4.524Z" style="fill-rule:nonzero;"/><path d="M498.071,135.436c-3.87,0 -5.287,5.179 -5.287,8.667l10.138,0c0,-3.325 -0.872,-8.667 -4.851,-8.667m-5.287,11.828c0,4.469 1.581,9.374 7.031,9.374c2.18,0 4.633,-0.871 6.432,-2.07l0.327,4.196c-2.126,0.982 -4.852,1.526 -7.195,1.526c-8.502,0 -11.391,-6.704 -11.391,-14.334c0,-6.705 2.889,-14.062 10.083,-14.062c7.467,0 9.429,7.467 9.429,13.626l0,1.744l-14.716,0Z" style="fill-rule:nonzero;"/><path d="M517.908,160.29c-2.671,0 -5.232,-0.437 -7.686,-1.309l0.437,-4.414c2.126,1.145 4.415,1.908 6.704,1.908c2.071,0 4.36,-1.472 4.36,-3.816c0,-5.613 -11.227,-4.687 -11.227,-13.136c0,-5.068 4.578,-7.629 8.884,-7.629c1.853,0 3.924,0.38 5.777,0.98l-0.327,4.088c-1.799,-0.708 -3.324,-1.254 -5.233,-1.254c-2.071,0 -4.251,1.309 -4.251,3.543c0,5.832 11.228,4.524 11.228,12.918c0,5.068 -3.706,8.121 -8.666,8.121" style="fill-rule:nonzero;"/><rect x="554.257" y="117.396" width="3.926" height="54.068"/><path d="M598.128,159.691l-5.668,0l-7.904,-27.252l5.125,0l5.722,22.619l5.723,-22.619l4.742,0l-7.74,27.252Z" style="fill-rule:nonzero;"/><path d="M621.835,146.282l-0.871,0c-4.307,0 -9.32,0.764 -9.32,5.996c0,2.615 1.744,4.359 4.414,4.359c4.033,0 5.777,-3.869 5.777,-7.466l0,-2.889Zm0.328,13.408l-0.219,-3.815c-1.853,2.888 -3.869,4.415 -7.357,4.415c-4.469,0 -7.686,-3.379 -7.686,-7.794c0,-7.304 7.196,-9.32 13.137,-9.32l1.797,0l0,-1.636c0,-3.542 -1.307,-5.995 -5.395,-5.995c-2.289,0 -5.07,1.144 -7.085,2.671l-0.329,-4.198c2.563,-1.253 4.852,-2.125 8.069,-2.125c6.703,0 9.32,3.542 9.32,9.211l0,12.645c0,2.235 0.162,4.088 0.272,5.941l-4.524,0Z" style="fill-rule:nonzero;"/><rect x="632.571" y="120.393" width="4.687" height="39.298"/><path d="M652.68,135.708c-4.85,0 -5.777,6.596 -5.777,10.247c0,3.816 0.763,10.52 5.777,10.52c4.961,0 5.777,-6.759 5.777,-10.52c0,-3.869 -0.652,-10.247 -5.777,-10.247m0,24.582c-7.957,0 -10.791,-7.413 -10.791,-14.335c0,-6.704 3.27,-14.061 10.791,-14.061c8.121,0 10.793,7.085 10.793,14.061c0,6.759 -2.889,14.335 -10.793,14.335" style="fill-rule:nonzero;"/><path d="M679.876,136.581c-0.436,-0.055 -0.871,-0.164 -1.361,-0.164c-4.088,0 -5.67,4.523 -5.67,8.012l0,15.261l-4.688,0l0,-19.73c0,-2.508 -0.162,-5.015 -0.217,-7.522l4.36,0l0.109,4.306c1.254,-2.726 3.543,-4.85 6.651,-4.85c0.38,0 0.761,0.108 1.144,0.163l-0.328,4.524Z" style="fill-rule:nonzero;"/><path d="M683.472,132.439l4.687,0l0,27.252l-4.687,0l0,-27.252Zm-0.055,-10.792l4.797,0l0,5.232l-4.797,0l0,-5.232Z" style="fill-rule:nonzero;"/><path d="M700.204,160.29c-2.672,0 -5.232,-0.437 -7.686,-1.309l0.436,-4.414c2.127,1.145 4.416,1.908 6.705,1.908c2.07,0 4.359,-1.472 4.359,-3.816c0,-5.613 -11.228,-4.687 -11.228,-13.136c0,-5.068 4.58,-7.629 8.885,-7.629c1.853,0 3.924,0.38 5.777,0.98l-0.326,4.088c-1.799,-0.708 -3.324,-1.254 -5.233,-1.254c-2.072,0 -4.252,1.309 -4.252,3.543c0,5.832 11.229,4.524 11.229,12.918c0,5.068 -3.707,8.121 -8.666,8.121" style="fill-rule:nonzero;"/><path d="M721.677,135.436c-3.871,0 -5.287,5.179 -5.287,8.667l10.137,0c0,-3.325 -0.871,-8.667 -4.85,-8.667m-5.287,11.828c0,4.469 1.58,9.374 7.031,9.374c2.18,0 4.633,-0.871 6.432,-2.07l0.326,4.196c-2.125,0.982 -4.852,1.526 -7.195,1.526c-8.502,0 -11.391,-6.704 -11.391,-14.334c0,-6.705 2.889,-14.062 10.084,-14.062c7.467,0 9.428,7.467 9.428,13.626l0,1.744l-14.715,0Z" style="fill-rule:nonzero;"/><path d="M756.229,135.708c-4.797,0 -5.396,6.704 -5.396,10.247c0,3.434 0.709,10.52 5.396,10.52c4.959,0 5.613,-6.487 5.613,-10.52c0,-3.978 -0.873,-10.247 -5.613,-10.247m5.939,23.982l-0.162,-3.978c-1.308,2.561 -3.597,4.578 -6.976,4.578c-7.25,0 -9.213,-8.558 -9.213,-14.335c0,-5.886 1.853,-14.061 9.213,-14.061c3.324,0 5.287,1.852 6.703,4.36l0,-15.861l4.742,0l0,31.776c0,2.779 0,4.742 0.164,7.521l-4.471,0Z" style="fill-rule:nonzero;"/><path d="M781.188,135.436c-3.869,0 -5.287,5.179 -5.287,8.667l10.139,0c0,-3.325 -0.873,-8.667 -4.852,-8.667m-5.287,11.828c0,4.469 1.582,9.374 7.031,9.374c2.18,0 4.633,-0.871 6.432,-2.07l0.328,4.196c-2.127,0.982 -4.852,1.526 -7.195,1.526c-8.502,0 -11.393,-6.704 -11.393,-14.334c0,-6.705 2.891,-14.062 10.084,-14.062c7.467,0 9.43,7.467 9.43,13.626l0,1.744l-14.717,0Z" style="fill-rule:nonzero;"/><path d="M801.026,160.29c-2.672,0 -5.232,-0.437 -7.686,-1.309l0.436,-4.414c2.127,1.145 4.416,1.908 6.705,1.908c2.07,0 4.359,-1.472 4.359,-3.816c0,-5.613 -11.228,-4.687 -11.228,-13.136c0,-5.068 4.58,-7.629 8.885,-7.629c1.853,0 3.924,0.38 5.777,0.98l-0.326,4.088c-1.799,-0.708 -3.324,-1.254 -5.233,-1.254c-2.072,0 -4.252,1.309 -4.252,3.543c0,5.832 11.229,4.524 11.229,12.918c0,5.068 -3.707,8.121 -8.666,8.121" style="fill-rule:nonzero;"/><path d="M852.147,159.691l0,-18.368c0,-2.671 -0.545,-5.56 -3.871,-5.56c-3.051,0 -4.74,3.816 -4.74,6.65l0,17.278l-4.633,0l0,-18.368c0,-2.671 -0.545,-5.56 -3.871,-5.56c-2.998,0 -4.688,3.816 -4.688,6.65l0,17.278l-4.687,0l0,-19.73c0,-2.454 -0.162,-5.07 -0.217,-7.522l4.359,0l0.164,3.979c1.254,-2.617 3.598,-4.524 6.596,-4.524c3.27,0 5.34,1.635 6.432,4.524c1.635,-2.726 3.814,-4.524 6.758,-4.524c5.123,0 7.085,3.597 7.085,8.939l0,18.858l-4.687,0Z" style="fill-rule:nonzero;"/><path d="M872.638,127.861l-3.326,-0.001l4.035,-7.412l4.305,0l-5.014,7.413Zm-1.09,7.575c-3.871,0 -5.287,5.179 -5.287,8.667l10.137,0c0,-3.325 -0.871,-8.667 -4.85,-8.667m-5.287,11.828c0,4.469 1.58,9.374 7.031,9.374c2.18,0 4.633,-0.871 6.432,-2.07l0.326,4.196c-2.125,0.982 -4.851,1.527 -7.195,1.527c-8.502,0 -11.391,-6.704 -11.391,-14.335c0,-6.704 2.889,-14.062 10.084,-14.062c7.467,0 9.428,7.467 9.428,13.626l0,1.744l-14.715,0Z" style="fill-rule:nonzero;"/><path d="M892.528,160.29c-4.197,0 -5.832,-2.671 -5.832,-6.541l0,-17.55l-3.924,0l0,-3.761l3.979,0l0,-5.996l4.632,-1.525l0,7.521l5.288,0l0,3.761l-5.288,0l0,16.405c0,2.126 0.165,3.761 2.727,3.761c0.871,0 1.635,-0.326 2.451,-0.762l0.328,3.924c-1.363,0.491 -2.998,0.763 -4.361,0.763" style="fill-rule:nonzero;"/><path d="M900.431,132.439l4.687,0l0,27.252l-4.687,0l0,-27.252Zm-0.055,-10.792l4.797,0l0,5.232l-4.797,0l0,-5.232Z" style="fill-rule:nonzero;"/><path d="M919.833,135.436c-3.871,0 -5.287,5.179 -5.287,8.667l10.137,0c0,-3.325 -0.871,-8.667 -4.85,-8.667m-5.287,11.828c0,4.469 1.58,9.374 7.031,9.374c2.18,0 4.633,-0.871 6.432,-2.07l0.326,4.196c-2.125,0.982 -4.852,1.526 -7.195,1.526c-8.502,0 -11.391,-6.704 -11.391,-14.334c0,-6.705 2.889,-14.062 10.084,-14.062c7.467,0 9.428,7.467 9.428,13.626l0,1.744l-14.715,0Z" style="fill-rule:nonzero;"/><path d="M945.503,136.581c-0.437,-0.055 -0.873,-0.164 -1.363,-0.164c-4.088,0 -5.668,4.523 -5.668,8.012l0,15.261l-4.688,0l0,-19.73c0,-2.508 -0.164,-5.015 -0.219,-7.522l4.362,0l0.109,4.306c1.252,-2.726 3.541,-4.85 6.649,-4.85c0.381,0 0.763,0.108 1.144,0.163l-0.326,4.524Z" style="fill-rule:nonzero;"/><path d="M954.983,160.29c-2.67,0 -5.232,-0.437 -7.686,-1.309l0.438,-4.414c2.125,1.145 4.414,1.908 6.703,1.908c2.072,0 4.361,-1.472 4.361,-3.816c0,-5.613 -11.228,-4.687 -11.228,-13.136c0,-5.068 4.578,-7.629 8.885,-7.629c1.853,0 3.923,0.38 5.777,0.98l-0.328,4.088c-1.799,-0.708 -3.324,-1.254 -5.233,-1.254c-2.07,0 -4.25,1.309 -4.25,3.543c0,5.832 11.227,4.524 11.227,12.918c0,5.068 -3.705,8.121 -8.666,8.121" style="fill-rule:nonzero;"/><path d="M994.114,159.691l-0.109,-3.924c-1.254,2.507 -3.707,4.524 -7.032,4.524c-5.558,0 -7.466,-4.361 -7.466,-9.321l0,-18.531l4.687,0l0,18.368c0,2.889 1.09,5.559 4.252,5.559c3.543,0 5.123,-3.761 5.123,-6.704l0,-17.223l4.688,0l0,19.731c0,2.506 0.164,5.014 0.216,7.521l-4.359,0Z" style="fill-rule:nonzero;"/><path d="M1018.58,159.691l0,-18.368c0,-2.889 -1.145,-5.56 -4.305,-5.56c-3.543,0 -5.177,3.761 -5.177,6.704l0,17.224l-4.688,0l0,-19.73c0,-2.508 -0.164,-5.015 -0.219,-7.522l4.362,0l0.109,3.979c1.252,-2.507 3.76,-4.524 7.084,-4.524c5.561,0 7.521,4.306 7.521,9.266l0,18.531l-4.687,0Z" style="fill-rule:nonzero;"/><path d="M1029.43,132.439l4.687,0l0,27.252l-4.687,0l0,-27.252Zm-0.055,-10.792l4.797,0l0,5.232l-4.797,0l0,-5.232Z" style="fill-rule:nonzero;"/><path d="M1049.16,135.708c-4.797,0 -5.396,6.704 -5.396,10.247c0,3.434 0.709,10.52 5.396,10.52c4.961,0 5.613,-6.487 5.613,-10.52c0,-3.978 -0.871,-10.247 -5.613,-10.247m5.506,35.756l0,-15.48c-1.363,2.562 -3.434,4.306 -6.705,4.306c-7.248,0 -9.211,-8.558 -9.211,-14.335c0,-5.995 1.908,-14.061 9.32,-14.061c3.27,0 5.397,1.797 6.813,4.36l0,-3.816l4.523,0l0,39.026l-4.74,0Z" style="fill-rule:nonzero;"/><path d="M1080.06,159.691l-0.107,-3.924c-1.254,2.507 -3.707,4.524 -7.032,4.524c-5.56,0 -7.466,-4.361 -7.466,-9.321l0,-18.531l4.685,0l0,18.368c0,2.889 1.092,5.559 4.252,5.559c3.543,0 5.123,-3.761 5.123,-6.704l0,-17.223l4.688,0l0,19.731c0,2.506 0.164,5.014 0.218,7.521l-4.361,0Z" style="fill-rule:nonzero;"/><path d="M1098.91,135.436c-3.871,0 -5.287,5.179 -5.287,8.667l10.137,0c0,-3.325 -0.871,-8.667 -4.85,-8.667m-5.287,11.828c0,4.469 1.58,9.374 7.031,9.374c2.18,0 4.633,-0.871 6.432,-2.07l0.326,4.196c-2.125,0.982 -4.852,1.526 -7.195,1.526c-8.502,0 -11.391,-6.704 -11.391,-14.334c0,-6.705 2.889,-14.062 10.084,-14.062c7.467,0 9.428,7.467 9.428,13.626l0,1.744l-14.715,0Z" style="fill-rule:nonzero;"/><path d="M1118.75,160.29c-2.672,0 -5.232,-0.437 -7.686,-1.309l0.436,-4.414c2.127,1.145 4.416,1.908 6.705,1.908c2.07,0 4.359,-1.472 4.359,-3.816c0,-5.613 -11.228,-4.687 -11.228,-13.136c0,-5.068 4.58,-7.629 8.885,-7.629c1.853,0 3.924,0.38 5.777,0.98l-0.326,4.088c-1.799,-0.708 -3.324,-1.254 -5.233,-1.254c-2.072,0 -4.252,1.309 -4.252,3.543c0,5.832 11.229,4.524 11.229,12.918c0,5.068 -3.707,8.121 -8.666,8.121" style="fill-rule:nonzero;"/></svg>