<?xml version="1.0" encoding="UTF-8"?>
<svg width="194px" height="98px" viewBox="0 0 194 98" version="1.1" xmlns="http://www.w3.org/2000/svg" xmlns:xlink="http://www.w3.org/1999/xlink">
    <!-- Generator: Sketch 53.2 (72643) - https://sketchapp.com -->
    <title>Logo_Kleinstberufe</title>
    <desc>Created with Sketch.</desc>
    <g id="Logo_Kleinstberufe" stroke="none" stroke-width="1" fill="none" fill-rule="evenodd">
        <g id="Logo_Kleinstberufe-01" transform="translate(0.000000, 0.000000)" fill-rule="nonzero">
            <rect id="Rectangle" fill="#B0AE2D" x="43.0207387" y="0.266416503" width="21.4745422" height="21.4745422"></rect>
            <rect id="Rectangle" fill="#9D3D39" x="64.4952809" y="21.7409587" width="21.4741611" height="21.4745422"></rect>
            <rect id="Rectangle" fill="#5B8982" x="21.5465776" y="21.7413399" width="21.4741611" height="21.47378"></rect>
            <rect id="Rectangle" fill="#81A5D6" x="21.5465776" y="64.921776" width="21.4741611" height="21.47378"></rect>
            <rect id="Rectangle" fill="#A573AA" x="64.4952809" y="64.9221572" width="21.4741611" height="21.4749234"></rect>
            <rect id="Rectangle" fill="#F2EE6C" x="0.0720353635" y="43.4487583" width="21.4745422" height="21.47378"></rect>
            <g id="Group" transform="translate(23.630648, 46.117878)" fill="#000000">
                <path d="M0.266416503,7.25079764 C0.266416503,6.51329273 0.206958743,5.77616896 0.18675835,5.05886444 L1.80050295,5.05886444 L1.85996071,6.57313163 L1.89998035,6.57313163 C2.43776817,5.41789784 3.29418861,4.91936739 4.47000393,4.91936739 C6.24344597,4.91936739 7.43869941,5.93548527 7.43869941,8.16705697 L7.43869941,15.2204244 L5.76473477,15.2204244 L5.76473477,8.66520629 C5.76473477,7.05146169 5.16710806,6.35435756 4.09115128,6.35435756 C2.77622004,6.35435756 1.93923772,7.2706169 1.93923772,9.10389784 L1.93923772,15.2208055 L0.265654224,15.2208055 L0.265654224,7.25079764 L0.266416503,7.25079764 Z" id="Path"></path>
                <path d="M11.1258428,10.6379843 C11.1258428,12.9888527 12.0424833,14.0850098 13.8955835,14.0850098 C14.7325658,14.0850098 15.6492063,13.6665187 16.2266326,13.2480275 L16.3062908,14.7626758 C15.5097092,15.1411473 14.473391,15.3603026 13.4572731,15.3603026 C10.7671906,15.3603026 9.37260118,13.3280668 9.37260118,10.1402161 C9.37260118,6.95236542 10.7671906,4.91974853 13.2979568,4.91974853 C15.5893674,4.91974853 16.864279,6.75302947 16.864279,9.7415442 L16.864279,10.6383654 L11.1258428,10.6383654 L11.1258428,10.6379843 Z M15.1903143,9.36269155 C15.1903143,7.25079764 14.5328487,6.19466012 13.1980982,6.19466012 C12.1221415,6.19466012 11.1658625,6.99200393 11.1254617,9.36269155 L15.1903143,9.36269155 Z" id="Shape"></path>
                <path d="M23.2011041,15.1011277 C22.8028134,15.2406248 22.244444,15.3603026 21.7863143,15.3603026 C20.252609,15.3603026 19.4350648,14.7424754 19.4350648,12.9492141 L19.4350648,6.41419646 L17.8213202,6.41419646 L17.8213202,5.05924558 L19.4350648,5.05924558 L19.4350648,2.98699018 L21.1090295,2.48884086 L21.1090295,5.05886444 L23.2011041,5.05886444 L23.2011041,6.41381532 L21.1090295,6.41381532 L21.1090295,12.4110452 C21.1090295,13.5666601 21.4078428,14.0053517 22.165167,14.0053517 C22.5836582,14.0053517 22.8828527,13.8856739 23.2014853,13.7461768 L23.2014853,15.1011277 L23.2011041,15.1011277 Z" id="Path"></path>
                <polygon id="Path" points="30.4339882 5.05886444 30.4339882 6.57313163 25.7318703 13.7861965 30.5338468 13.7861965 30.5338468 15.2208055 24.0186483 15.2208055 24.0186483 13.7065383 28.7207662 6.49347348 24.1779646 6.49347348 24.1779646 5.05886444"></polygon>
                <polygon id="Path" points="41.9710806 15.2204244 40.0581415 15.2204244 37.9260472 6.63297053 37.8864086 6.63297053 35.933831 15.2204244 34.0208919 15.2204244 31.3311906 5.05886444 33.0844322 5.05886444 35.0168094 13.5468409 35.0568291 13.5468409 36.9892063 5.05886444 38.9821847 5.05886444 40.99422 13.5468409 41.0338585 13.5468409 42.9467976 5.05886444 44.6203811 5.05886444"></polygon>
                <path d="M47.2723497,10.6379843 C47.2723497,12.9888527 48.188609,14.0850098 50.0417092,14.0850098 C50.8783104,14.0850098 51.7957132,13.6665187 52.3731395,13.2480275 L52.4527976,14.7626758 C51.6554538,15.1411473 50.6191356,15.3603026 49.6030177,15.3603026 C46.9133163,15.3603026 45.5183458,13.3280668 45.5183458,10.1402161 C45.5183458,6.95236542 46.9133163,4.91974853 49.4437014,4.91974853 C51.735112,4.91974853 53.0100236,6.75302947 53.0100236,9.7415442 L53.0100236,10.6383654 L47.2723497,10.6383654 L47.2723497,10.6379843 Z M51.3368212,9.36269155 C51.3368212,7.25079764 50.6793556,6.19466012 49.3438428,6.19466012 C48.2682672,6.19466012 47.3116071,6.99200393 47.2719686,9.36269155 L51.3368212,9.36269155 Z" id="Shape"></path>
                <path d="M54.8638861,7.25079764 C54.8638861,6.51329273 54.8044283,5.77616896 54.7842279,5.05886444 L56.3979725,5.05886444 L56.4581925,6.65317092 L56.497831,6.65317092 C57.036,5.41789784 57.8928016,4.91936739 59.3868684,4.91936739 L59.3868684,6.57313163 C59.1875324,6.53349312 58.9683772,6.51367387 58.7496031,6.51367387 C57.4544912,6.51367387 56.5378507,7.62965029 56.5378507,9.84102161 L56.5378507,15.2204244 L54.8635049,15.2204244 L54.8635049,7.25079764 L54.8638861,7.25079764 Z" id="Path"></path>
                <polygon id="Path" points="65.9230295 5.05886444 67.8756071 5.05886444 63.8907937 9.60166601 68.2342593 15.2204244 66.1616228 15.2204244 62.4752417 10.0994342 62.4356031 10.0994342 62.4356031 15.2204244 60.7612574 15.2204244 60.7612574 0.277088409 62.4356031 0.277088409 62.4356031 9.14353635"></polygon>
                <polygon id="Path" points="79.5518153 5.05886444 81.5043929 5.05886444 77.5195796 9.60166601 81.8630452 15.2204244 79.7904086 15.2204244 76.1047898 10.0994342 76.0647701 10.0994342 76.0647701 15.2204244 74.3911866 15.2204244 74.3911866 0.277088409 76.0647701 0.277088409 76.0647701 9.14353635"></polygon>
                <polygon id="Path" points="83.3978939 0.277088409 85.0714774 0.277088409 85.0714774 15.2204244 83.3978939 15.2204244"></polygon>
                <path d="M88.9171749,10.6379843 C88.9171749,12.9888527 89.8334342,14.0850098 91.6865344,14.0850098 C92.5231356,14.0850098 93.439776,13.6665187 94.0179646,13.2480275 L94.0976228,14.7626758 C93.300279,15.1411473 92.2639607,15.3603026 91.2478428,15.3603026 C88.5581415,15.3603026 87.1631709,13.3280668 87.1631709,10.1402161 C87.1631709,6.95236542 88.5581415,4.91974853 91.0885265,4.91974853 C93.3799371,4.91974853 94.6548487,6.75302947 94.6548487,9.7415442 L94.6548487,10.6383654 L88.9171749,10.6383654 L88.9171749,10.6379843 Z M92.9816464,9.36269155 C92.9816464,7.25079764 92.3241807,6.19466012 90.988668,6.19466012 C89.9130923,6.19466012 88.9564322,6.99200393 88.9167937,9.36269155 L92.9816464,9.36269155 Z" id="Shape"></path>
                <path d="M98.4216503,0.874715128 L98.4216503,2.86731238 L96.5887505,2.86731238 L96.5887505,0.874715128 L98.4216503,0.874715128 Z M96.6687898,5.05886444 L98.3423733,5.05886444 L98.3423733,15.2204244 L96.6687898,15.2204244 L96.6687898,5.05886444 Z" id="Shape"></path>
                <path d="M100.931835,7.25079764 C100.931835,6.51329273 100.872377,5.77616896 100.852177,5.05886444 L102.465921,5.05886444 L102.526141,6.57313163 L102.56578,6.57313163 C103.103949,5.41789784 103.96075,4.91936739 105.136185,4.91936739 C106.909246,4.91936739 108.10488,5.93548527 108.10488,8.16705697 L108.10488,15.2204244 L106.431297,15.2204244 L106.431297,8.66520629 C106.431297,7.05146169 105.83367,6.35435756 104.756951,6.35435756 C103.442401,6.35435756 102.605418,7.2706169 102.605418,9.10389784 L102.605418,15.2208055 L100.931073,15.2208055 L100.931073,7.25079764 L100.931835,7.25079764 Z" id="Path"></path>
                <path d="M110.098621,13.2476464 C110.855564,13.7061572 111.652145,14.0049705 112.488747,14.0049705 C113.764039,14.0049705 114.421886,13.3471238 114.421886,12.5699804 C114.421886,11.8728762 114.063234,11.3945462 113.126774,10.976055 L112.010798,10.4779057 C110.556369,9.82005894 110.018582,9.16259332 110.018582,7.86748134 C110.018582,6.1935167 111.312931,4.91860511 113.285709,4.91860511 C114.12231,4.91860511 114.860196,5.05810216 115.437623,5.27725737 L115.357965,6.7118664 C114.839996,6.47289194 114.12231,6.27355599 113.364986,6.27355599 C112.26921,6.27355599 111.691403,6.87118271 111.691403,7.66852652 C111.691403,8.48530845 112.289029,8.94381925 113.405006,9.38174853 L114.002633,9.62110413 C115.237525,10.1192534 116.014668,10.9558546 116.014668,12.2113281 C116.014668,13.9649509 115.078208,15.3595403 112.746778,15.3595403 C111.691022,15.3595403 110.734743,15.1403851 109.997619,14.7619136 L110.098621,13.2476464 Z" id="Path"></path>
                <path d="M122.392656,15.1011277 C121.993603,15.2406248 121.435996,15.3603026 120.977485,15.3603026 C119.443399,15.3603026 118.626617,14.7424754 118.626617,12.9492141 L118.626617,6.41419646 L117.012872,6.41419646 L117.012872,5.05924558 L118.626617,5.05924558 L118.626617,2.98699018 L120.3002,2.48884086 L120.3002,5.05886444 L122.392656,5.05886444 L122.392656,6.41381532 L120.3002,6.41381532 L120.3002,12.4110452 C120.3002,13.5666601 120.599395,14.0053517 121.356338,14.0053517 C121.774829,14.0053517 122.073261,13.8856739 122.392656,13.7461768 L122.392656,15.1011277 Z" id="Path"></path>
                <path d="M123.647749,0.277088409 L125.322094,0.277088409 L125.322094,6.45345383 L125.361733,6.45345383 C126.039018,5.37787819 126.796342,4.91936739 127.952338,4.91936739 C130.044031,4.91936739 131.45844,6.63297053 131.45844,10.139835 C131.45844,13.6463183 130.044031,15.3599214 127.952338,15.3599214 C126.477709,15.3599214 125.720766,14.5229391 125.282075,13.7259764 L125.242436,13.7259764 L125.182216,15.2204244 L123.568472,15.2204244 C123.588672,14.6029784 123.64813,13.965332 123.64813,13.3475049 L123.64813,0.277088409 L123.647749,0.277088409 Z M127.552904,14.0053517 C129.08699,14.0053517 129.784475,12.6904204 129.784475,10.139835 C129.784475,7.58924951 129.08699,6.27393713 127.552904,6.27393713 C126.018817,6.27393713 125.321713,7.58924951 125.321713,10.139835 C125.321713,12.6904204 126.018817,14.0053517 127.552904,14.0053517 Z" id="Shape"></path>
                <path d="M134.647053,10.6379843 C134.647053,12.9888527 135.563312,14.0850098 137.417175,14.0850098 C138.253776,14.0850098 139.170417,13.6665187 139.747843,13.2480275 L139.827501,14.7626758 C139.030919,15.1411473 137.994601,15.3603026 136.978483,15.3603026 C134.28802,15.3603026 132.893811,13.3280668 132.893811,10.1402161 C132.893811,6.95236542 134.28802,4.91974853 136.819167,4.91974853 C139.110578,4.91974853 140.385489,6.75302947 140.385489,9.7415442 L140.385489,10.6383654 L134.647053,10.6383654 L134.647053,10.6379843 Z M138.711525,9.36269155 C138.711525,7.25079764 138.054059,6.19466012 136.719308,6.19466012 C135.642971,6.19466012 134.687073,6.99200393 134.646672,9.36269155 L138.711525,9.36269155 Z" id="Shape"></path>
                <path d="M142.238589,7.25079764 C142.238589,6.51329273 142.179132,5.77616896 142.158931,5.05886444 L143.772676,5.05886444 L143.832896,6.65317092 L143.872534,6.65317092 C144.410703,5.41789784 145.267505,4.91936739 146.761572,4.91936739 L146.761572,6.57313163 C146.562998,6.53349312 146.343081,6.51367387 146.124306,6.51367387 C144.829194,6.51367387 143.912554,7.62965029 143.912554,9.84102161 L143.912554,15.2204244 L142.238208,15.2204244 L142.238208,7.25079764 L142.238589,7.25079764 Z" id="Path"></path>
                <path d="M155.309768,13.0288723 C155.309768,13.7659961 155.369226,14.5031198 155.389426,15.2204244 L153.775682,15.2204244 L153.716224,13.7061572 L153.676204,13.7061572 C153.138798,14.861391 152.281996,15.3599214 151.106562,15.3599214 C149.332739,15.3599214 148.137104,14.3438035 148.137104,12.1122318 L148.137104,5.05886444 L149.81145,5.05886444 L149.81145,11.6140825 C149.81145,13.2278271 150.409077,13.9249312 151.485033,13.9249312 C152.800346,13.9249312 153.636947,13.0086719 153.636947,11.175391 L153.636947,5.0584833 L155.31053,5.0584833 L155.31053,13.0288723 L155.309768,13.0288723 Z" id="Path"></path>
                <path d="M158.458743,6.41381532 L156.844998,6.41381532 L156.844998,5.05886444 L158.458743,5.05886444 L158.458743,2.78727308 C158.458743,1.13350884 159.215686,0.0377328094 160.989128,0.0377328094 C161.447639,0.0377328094 161.925587,0.0975717092 162.30444,0.197049116 L162.30444,1.63203929 C162.105104,1.47234185 161.746071,1.39268369 161.34778,1.39268369 C160.41132,1.39268369 160.132326,1.91065226 160.132326,2.92677014 L160.132326,5.05886444 L161.965988,5.05886444 L161.965988,6.41381532 L160.132326,6.41381532 L160.132326,15.2204244 L158.458743,15.2204244 L158.458743,6.41381532 L158.458743,6.41381532 Z" id="Path"></path>
                <path d="M164.536012,10.6379843 C164.536012,12.9888527 165.452271,14.0850098 167.306134,14.0850098 C168.142735,14.0850098 169.059375,13.6665187 169.636802,13.2480275 L169.71646,14.7626758 C168.919878,15.1411473 167.88356,15.3603026 166.867442,15.3603026 C164.176978,15.3603026 162.78277,13.3280668 162.78277,10.1402161 C162.78277,6.95236542 164.176978,4.91974853 166.708126,4.91974853 C168.999536,4.91974853 170.274448,6.75302947 170.274448,9.7415442 L170.274448,10.6383654 L164.536012,10.6383654 L164.536012,10.6379843 Z M168.600483,9.36269155 C168.600483,7.25079764 167.943018,6.19466012 166.608267,6.19466012 C165.531929,6.19466012 164.576031,6.99200393 164.535631,9.36269155 L168.600483,9.36269155 Z" id="Shape"></path>
            </g>
            <path d="M89.3044126,95.3115521 C99.5803143,93.8414971 109.760169,91.7063536 119.222338,89.3844519 C128.686031,87.0602633 137.428609,84.5180629 144.867308,82.1679568 C145.796908,81.8744794 146.70745,81.5882436 147.597792,81.3073438 C148.484322,81.0146287 149.350271,80.7287741 150.194876,80.4505422 C151.8818,79.8898861 153.484491,79.3635324 154.983513,78.8493752 C157.97622,77.7997171 160.585882,76.8884126 162.718739,76.0903065 C166.981403,74.482279 169.387917,73.4810255 169.326935,73.3060825 C169.266715,73.1311395 166.746621,73.8038507 162.39477,75.1237367 C160.210079,75.7808212 157.569544,76.5751159 154.544821,77.4848959 C153.027124,77.9338782 151.41376,78.4118271 149.714259,78.9149312 C148.864318,79.1680079 147.993033,79.427945 147.101548,79.6943615 C146.206633,79.9512495 145.291898,80.2138546 144.357725,80.482558 C136.887391,82.6489548 128.149768,85.0695717 118.726857,87.3617446 C109.304707,89.6508684 99.202224,91.8416582 89.0238939,93.4874185 C78.5417957,95.1987348 69.6288487,96.0585855 61.5185815,96.349776 C57.4628762,96.4793635 53.606888,96.4702161 49.8538075,96.3074695 C46.1026326,96.1214735 42.4543654,95.7864519 38.8240118,95.242947 C35.1951827,94.6963929 31.5827426,93.9409745 27.9390491,92.8562515 C24.2957367,91.778389 20.6265069,90.3327269 16.9892927,88.3363183 C15.1697328,87.3396385 13.3757092,86.1767819 11.6327583,84.8302161 C9.88866405,83.4859371 8.20478978,81.9427033 6.65698232,80.1620196 C5.10498232,78.3889587 3.68371316,76.3773045 2.52314342,74.1140982 C1.94228684,72.9836385 1.42508055,71.7914342 0.996298625,70.5401532 C0.580856582,69.2865855 0.219155206,67.9773713 0.071654224,66.6064126 C0.205053045,67.9796582 0.553414538,69.293446 0.955516699,70.5538743 C1.37133988,71.8120157 1.87596857,73.012224 2.44539096,74.1529745 C3.58347348,76.4363811 4.98568566,78.4735717 6.52282122,80.2771238 C8.0553831,82.0867741 9.72858546,83.6635481 11.4646758,85.0428919 C13.2000039,86.4245226 14.9902161,87.6235874 16.8074892,88.6568566 C20.4408919,90.7279686 24.1154578,92.251002 27.7682986,93.406998 C31.4215206,94.5698546 35.0492063,95.4049312 38.6963301,96.0319057 C42.3453595,96.6573556 46.0161139,97.0739411 49.7939686,97.3434067 C53.5733477,97.5903851 57.4586837,97.6845265 61.5483104,97.6410766 C69.7268016,97.5233045 78.7232181,96.8410648 89.3044126,95.3115521 Z" id="Path" fill="#000000"></path>
        </g>
    </g>
</svg>