<?xml version="1.0" encoding="UTF-8"?>
<svg width="1054px" height="270px" viewBox="0 0 1054 270" version="1.1" xmlns="http://www.w3.org/2000/svg" xmlns:xlink="http://www.w3.org/1999/xlink">
    <!-- Generator: Sketch 53.2 (72643) - https://sketchapp.com -->
    <title>Logo_NkB_Claim_mobile</title>
    <desc>Created with Sketch.</desc>
    <g id="Page-1" stroke="none" stroke-width="1" fill="none" fill-rule="evenodd">
        <g id="Logo_NkB_Claim_mobile" fill-rule="nonzero">
            <rect id="Rectangle" fill="#B8B628" x="112.938" y="0.627" width="56.344" height="56.342"></rect>
            <rect id="Rectangle" fill="#BD251F" x="169.282" y="56.969" width="56.34" height="56.344"></rect>
            <rect id="Rectangle" fill="#39A292" x="56.597" y="56.971" width="56.342" height="56.342"></rect>
            <rect id="Rectangle" fill="#6A9DE2" x="56.597" y="170.264" width="56.342" height="56.342"></rect>
            <rect id="Rectangle" fill="#AA62B2" x="169.282" y="170.266" width="56.34" height="56.342"></rect>
            <rect id="Rectangle" fill="#FCEA3D" x="0.255" y="113.924" width="56.342" height="56.342"></rect>
            <g id="Group" transform="translate(62.000000, 121.000000)" fill="#000000">
                <path d="M0.765,18.951 C0.765,17.017 0.607,15.082 0.556,13.201 L4.79,13.201 L4.946,17.174 L5.05,17.174 C6.462,14.143 8.71,12.834 11.794,12.834 C16.446,12.834 19.583,15.5 19.583,21.355 L19.583,39.861 L15.192,39.861 L15.192,22.662 C15.192,18.428 13.624,16.6 10.801,16.6 C7.35,16.6 5.155,19.004 5.155,23.813 L5.155,39.862 L0.764,39.862 L0.764,18.951 L0.765,18.951 Z" id="Path"></path>
                <path d="M29.257,27.838 C29.257,34.006 31.661,36.883 36.523,36.883 C38.718,36.883 41.125,35.785 42.64,34.686 L42.849,38.661 C40.757,39.653 38.038,40.229 35.372,40.229 C28.315,40.229 24.655,34.897 24.655,26.532 C24.655,18.169 28.315,12.835 34.954,12.835 C40.966,12.835 44.311,17.646 44.311,25.487 L44.311,27.839 L29.257,27.839 L29.257,27.838 Z M39.921,24.492 C39.921,18.951 38.196,16.18 34.692,16.18 C31.87,16.18 29.36,18.272 29.256,24.492 L39.921,24.492 Z" id="Shape"></path>
                <path d="M60.938,39.549 C59.891,39.914 58.428,40.229 57.225,40.229 C53.2,40.229 51.057,38.608 51.057,33.903 L51.057,16.757 L46.823,16.757 L46.823,13.202 L51.057,13.202 L51.057,7.764 L55.448,6.457 L55.448,13.201 L60.938,13.201 L60.938,16.756 L55.448,16.756 L55.448,32.49 C55.448,35.523 56.233,36.674 58.219,36.674 C59.317,36.674 60.1,36.36 60.938,35.994 L60.938,39.549 L60.938,39.549 Z" id="Path"></path>
                <polygon id="Path" points="79.915 13.201 79.915 17.174 67.577 36.098 80.177 36.098 80.177 39.862 63.081 39.862 63.081 35.889 75.419 16.965 63.499 16.965 63.499 13.201"></polygon>
                <polygon id="Path" points="110.185 39.861 105.167 39.861 99.573 17.33 99.468 17.33 94.345 39.861 89.327 39.861 82.268 13.201 86.87 13.201 91.94 35.471 92.044 35.471 97.116 13.201 102.343 13.201 107.624 35.471 107.728 35.471 112.748 13.201 117.139 13.201"></polygon>
                <path d="M124.093,27.838 C124.093,34.006 126.499,36.883 131.361,36.883 C133.556,36.883 135.961,35.785 137.476,34.686 L137.685,38.661 C135.595,39.653 132.876,40.229 130.21,40.229 C123.153,40.229 119.493,34.897 119.493,26.532 C119.493,18.169 123.153,12.835 129.792,12.835 C135.804,12.835 139.149,17.646 139.149,25.487 L139.149,27.839 L124.093,27.839 L124.093,27.838 Z M134.757,24.492 C134.757,18.951 133.032,16.18 129.53,16.18 C126.708,16.18 124.198,18.272 124.092,24.492 L134.757,24.492 Z" id="Shape"></path>
                <path d="M144.013,18.951 C144.013,17.017 143.857,15.082 143.804,13.201 L148.038,13.201 L148.194,17.383 L148.299,17.383 C149.709,14.143 151.957,12.834 155.879,12.834 L155.879,17.174 C155.356,17.069 154.781,17.018 154.205,17.018 C150.807,17.018 148.402,19.946 148.402,25.748 L148.402,39.861 L144.011,39.861 L144.011,18.951 L144.013,18.951 Z" id="Path"></path>
                <polygon id="Path" points="173.026 13.201 178.149 13.201 167.694 25.119 179.09 39.861 173.652 39.861 163.982 26.425 163.877 26.425 163.877 39.861 159.486 39.861 159.486 0.654 163.877 0.654 163.877 23.918"></polygon>
                <polygon id="Path" points="208.786 13.201 213.908 13.201 203.454 25.119 214.85 39.861 209.413 39.861 199.743 26.425 199.638 26.425 199.638 39.861 195.247 39.861 195.247 0.654 199.638 0.654 199.638 23.918"></polygon>
                <polygon id="Path" points="218.877 0.654 223.268 0.654 223.268 39.861 218.877 39.861"></polygon>
                <path d="M233.357,27.838 C233.357,34.006 235.761,36.883 240.623,36.883 C242.818,36.883 245.223,35.785 246.74,34.686 L246.949,38.661 C244.857,39.653 242.138,40.229 239.472,40.229 C232.415,40.229 228.755,34.897 228.755,26.532 C228.755,18.169 232.415,12.835 239.054,12.835 C245.066,12.835 248.411,17.646 248.411,25.487 L248.411,27.839 L233.357,27.839 L233.357,27.838 Z M244.021,24.492 C244.021,18.951 242.296,16.18 238.792,16.18 C235.97,16.18 233.46,18.272 233.356,24.492 L244.021,24.492 Z" id="Shape"></path>
                <path d="M258.295,2.223 L258.295,7.452 L253.486,7.452 L253.486,2.223 L258.295,2.223 Z M253.695,13.201 L258.086,13.201 L258.086,39.861 L253.695,39.861 L253.695,13.201 Z" id="Shape"></path>
                <path d="M264.881,18.951 C264.881,17.017 264.725,15.082 264.672,13.201 L268.906,13.201 L269.064,17.174 L269.168,17.174 C270.58,14.143 272.828,12.834 275.912,12.834 C280.564,12.834 283.701,15.5 283.701,21.355 L283.701,39.861 L279.31,39.861 L279.31,22.662 C279.31,18.428 277.742,16.6 274.917,16.6 C271.468,16.6 269.272,19.004 269.272,23.813 L269.272,39.862 L264.879,39.862 L264.879,18.951 L264.881,18.951 Z" id="Path"></path>
                <path d="M288.932,34.686 C290.918,35.889 293.008,36.674 295.203,36.674 C298.549,36.674 300.275,34.947 300.275,32.908 C300.275,31.08 299.334,29.824 296.877,28.726 L293.949,27.419 C290.133,25.694 288.722,23.968 288.722,20.571 C288.722,16.178 292.118,12.833 297.294,12.833 C299.489,12.833 301.425,13.2 302.94,13.774 L302.731,17.538 C301.372,16.911 299.489,16.388 297.502,16.388 C294.627,16.388 293.111,17.956 293.111,20.048 C293.111,22.191 294.679,23.394 297.607,24.544 L299.175,25.171 C302.415,26.478 304.454,28.673 304.454,31.968 C304.454,36.568 301.997,40.228 295.88,40.228 C293.11,40.228 290.601,39.652 288.667,38.66 L288.932,34.686 Z" id="Path"></path>
                <path d="M321.188,39.549 C320.141,39.914 318.678,40.229 317.475,40.229 C313.45,40.229 311.307,38.608 311.307,33.903 L311.307,16.757 L307.073,16.757 L307.073,13.202 L311.307,13.202 L311.307,7.764 L315.698,6.457 L315.698,13.201 L321.188,13.201 L321.188,16.756 L315.698,16.756 L315.698,32.49 C315.698,35.523 316.483,36.674 318.469,36.674 C319.567,36.674 320.35,36.36 321.188,35.994 L321.188,39.549 Z" id="Path"></path>
                <path d="M324.48,0.654 L328.873,0.654 L328.873,16.859 L328.977,16.859 C330.754,14.037 332.741,12.834 335.774,12.834 C341.262,12.834 344.973,17.33 344.973,26.531 C344.973,35.732 341.262,40.228 335.774,40.228 C331.905,40.228 329.919,38.031 328.768,35.941 L328.664,35.941 L328.506,39.861 L324.272,39.861 C324.325,38.242 324.481,36.568 324.481,34.947 L324.481,0.654 L324.48,0.654 Z M334.727,36.674 C338.752,36.674 340.582,33.223 340.582,26.531 C340.582,19.839 338.752,16.388 334.727,16.388 C330.702,16.388 328.873,19.839 328.873,26.531 C328.873,33.223 330.701,36.674 334.727,36.674 Z" id="Shape"></path>
                <path d="M353.34,27.838 C353.34,34.006 355.744,36.883 360.608,36.883 C362.803,36.883 365.208,35.785 366.723,34.686 L366.932,38.661 C364.842,39.653 362.123,40.229 359.457,40.229 C352.398,40.229 348.74,34.897 348.74,26.532 C348.74,18.169 352.398,12.835 359.039,12.835 C365.051,12.835 368.396,17.646 368.396,25.487 L368.396,27.839 L353.34,27.839 L353.34,27.838 Z M364.004,24.492 C364.004,18.951 362.279,16.18 358.777,16.18 C355.953,16.18 353.445,18.272 353.339,24.492 L364.004,24.492 Z" id="Shape"></path>
                <path d="M373.258,18.951 C373.258,17.017 373.102,15.082 373.049,13.201 L377.283,13.201 L377.441,17.383 L377.545,17.383 C378.957,14.143 381.205,12.834 385.125,12.834 L385.125,17.174 C384.604,17.069 384.027,17.018 383.453,17.018 C380.055,17.018 377.65,19.946 377.65,25.748 L377.65,39.861 L373.257,39.861 L373.257,18.951 L373.258,18.951 Z" id="Path"></path>
                <path d="M407.553,34.111 C407.553,36.045 407.709,37.98 407.762,39.861 L403.528,39.861 L403.372,35.888 L403.267,35.888 C401.857,38.919 399.609,40.228 396.525,40.228 C391.871,40.228 388.734,37.562 388.734,31.707 L388.734,13.201 L393.127,13.201 L393.127,30.4 C393.127,34.634 394.695,36.462 397.518,36.462 C400.969,36.462 403.164,34.058 403.164,29.249 L403.164,13.2 L407.555,13.2 L407.555,34.111 L407.553,34.111 Z" id="Path"></path>
                <path d="M415.814,16.756 L411.58,16.756 L411.58,13.201 L415.814,13.201 L415.814,7.24 C415.814,2.902 417.8,0.027 422.453,0.027 C423.656,0.027 424.91,0.183 425.904,0.445 L425.904,4.209 C425.381,3.791 424.439,3.582 423.394,3.582 C420.937,3.582 420.205,4.941 420.205,7.607 L420.205,13.201 L425.016,13.201 L425.016,16.756 L420.205,16.756 L420.205,39.861 L415.814,39.861 L415.814,16.756 L415.814,16.756 Z" id="Path"></path>
                <path d="M431.76,27.838 C431.76,34.006 434.164,36.883 439.028,36.883 C441.223,36.883 443.628,35.785 445.143,34.686 L445.352,38.661 C443.262,39.653 440.543,40.229 437.877,40.229 C430.818,40.229 427.16,34.897 427.16,26.532 C427.16,18.169 430.818,12.835 437.459,12.835 C443.471,12.835 446.816,17.646 446.816,25.487 L446.816,27.839 L431.76,27.839 L431.76,27.838 Z M442.424,24.492 C442.424,18.951 440.699,16.18 437.197,16.18 C434.373,16.18 431.865,18.272 431.759,24.492 L442.424,24.492 Z" id="Shape"></path>
            </g>
            <path d="M234.569,262.949 C261.528,259.092 288.238,253.492 313.064,247.4 C337.894,241.302 360.832,234.63 380.347,228.466 C382.788,227.696 385.177,226.943 387.513,226.206 C389.837,225.44 392.111,224.69 394.325,223.96 C398.753,222.487 402.958,221.108 406.891,219.757 C414.741,217.005 421.588,214.614 427.184,212.519 C438.368,208.3 444.682,205.673 444.524,205.214 C444.364,204.755 437.753,206.521 426.336,209.984 C420.604,211.707 413.674,213.791 405.738,216.177 C401.758,217.357 397.525,218.609 393.066,219.929 C390.836,220.595 388.548,221.277 386.209,221.974 C383.863,222.65 381.461,223.339 379.01,224.044 C359.412,229.726 336.485,236.079 311.762,242.091 C287.043,248.099 260.538,253.845 233.833,258.165 C206.329,262.655 182.946,264.909 161.665,265.675 C151.024,266.013 140.909,265.989 131.061,265.564 C121.219,265.074 111.645,264.197 102.122,262.769 C92.601,261.337 83.122,259.355 73.563,256.509 C64.004,253.681 54.377,249.888 44.833,244.648 C40.06,242.035 35.353,238.984 30.78,235.451 C26.204,231.924 21.786,227.873 17.725,223.201 C13.653,218.549 9.924,213.273 6.877,207.334 C5.354,204.369 3.996,201.24 2.873,197.957 C1.783,194.668 0.834,191.234 0.447,187.637 C0.797,191.239 1.711,194.686 2.765,197.994 C3.857,201.295 5.181,204.443 6.675,207.437 C9.661,213.427 13.339,218.773 17.372,223.503 C21.393,228.253 25.784,232.39 30.339,236.007 C34.892,239.632 39.587,242.778 44.357,245.489 C53.888,250.925 63.531,254.919 73.113,257.952 C82.699,261.003 92.217,263.194 101.787,264.841 C111.361,266.48 120.992,267.573 130.904,268.282 C140.82,268.928 151.013,269.175 161.744,269.063 C183.202,268.754 206.806,266.965 234.569,262.949 Z" id="Path" fill="#000000"></path>
            <g id="Group" transform="translate(538.000000, 119.000000)" fill="#000000">
                <rect id="Rectangle" x="0.245" y="0.387" width="3.199" height="53.798"></rect>
                <path d="M43.911,27.486 C41.401,26.147 39.03,24.882 39.03,22.02 C39.03,19.639 41.311,18.166 43.425,18.166 C45.135,18.166 46.683,18.747 48.123,19.343 L48.3,19.416 L48.641,15.878 L48.653,15.765 L48.544,15.73 C47.234,15.308 45.265,14.805 43.317,14.805 C39.296,14.805 35.021,17.428 35.021,22.29 C35.021,26.845 38.332,28.645 41.252,30.233 C43.74,31.587 46.091,32.866 46.091,35.629 C46.091,38.06 43.69,39.754 41.535,39.754 C39.57,39.754 37.544,39.159 35.339,37.936 L35.149,37.831 L34.805,41.72 L34.796,41.827 L34.897,41.865 C37.225,42.73 39.388,43.116 41.913,43.116 C46.778,43.116 50.047,39.956 50.047,35.252 C50.046,30.759 46.787,29.021 43.911,27.486 Z" id="Path"></path>
                <path d="M65.008,38.907 C64.308,39.307 63.553,39.699 62.702,39.699 C60.282,39.699 60.09,38.075 60.09,35.952 L60.09,18.598 L65.382,18.598 L65.382,15.345 L60.09,15.345 L60.09,7.998 L56.446,9.25 L56.35,9.282 L56.35,15.344 L52.461,15.344 L52.461,18.597 L56.35,18.597 L56.35,37.032 C56.35,41.011 58.173,43.115 61.621,43.115 C62.925,43.115 64.284,42.882 65.45,42.458 L65.553,42.421 L65.197,38.799 L65.008,38.907 Z" id="Path"></path>
                <rect id="Rectangle" x="72.28" y="4.814" width="3.469" height="4.928"></rect>
                <path d="M86.55,36.547 L86.55,23.803 C86.55,17.916 83.494,14.805 77.714,14.805 C74.798,14.805 72.802,15.589 70.14,17.036 L70.058,17.081 L70.415,20.955 L70.623,20.779 C72.474,19.209 75.234,18.112 77.336,18.112 C81.07,18.112 82.81,20.091 82.81,24.342 L82.81,26.09 L81.224,26.09 C78.798,26.09 75.323,26.415 72.541,27.964 C69.68,29.558 68.229,32.064 68.229,35.412 C68.229,39.731 71.541,43.114 75.769,43.114 C78.806,43.114 80.923,41.906 82.995,38.966 L83.196,42.52 L86.832,42.52 L86.819,42.367 C86.636,40.228 86.55,38.378 86.55,36.547 Z M76.742,39.807 C74.027,39.807 72.132,37.955 72.132,35.305 C72.132,29.783 77.452,29.075 82.088,29.075 L82.81,29.075 L82.81,32.227 C82.81,35.877 80.911,39.807 76.742,39.807 Z" id="Shape"></path>
                <rect id="Rectangle" x="79.948" y="4.814" width="3.469" height="4.928"></rect>
                <path d="M104.268,14.94 C104.018,14.877 103.735,14.804 103.471,14.804 C100.558,14.804 98.445,16.886 97.334,19.005 L97.237,15.344 L93.715,15.344 L93.718,15.489 C93.737,16.41 93.761,17.319 93.785,18.223 C93.832,19.933 93.88,21.701 93.88,23.478 L93.88,42.52 L97.673,42.52 L97.673,26.232 C97.673,20.71 101.098,18.652 103.256,18.652 C103.406,18.652 103.571,18.677 103.746,18.704 C103.924,18.731 104.108,18.76 104.281,18.76 L104.41,18.76 L104.759,15.045 L104.629,15.024 C104.52,15.005 104.396,14.974 104.268,14.94 Z" id="Path"></path>
                <polygon id="Path" points="126.241 15.345 121.709 15.345 112.847 26.16 112.847 3.303 109.053 3.303 109.053 42.521 112.847 42.521 112.847 28.731 122.524 42.461 122.567 42.521 127.133 42.521 116.017 27.373"></polygon>
                <path d="M140.553,38.907 C139.852,39.307 139.097,39.699 138.246,39.699 C135.826,39.699 135.634,38.075 135.634,35.952 L135.634,18.598 L140.927,18.598 L140.927,15.345 L135.634,15.345 L135.634,7.998 L131.991,9.25 L131.895,9.282 L131.895,15.344 L128.006,15.344 L128.006,18.597 L131.895,18.597 L131.895,37.032 C131.895,41.011 133.717,43.115 137.166,43.115 C138.47,43.115 139.829,42.882 140.995,42.458 L141.098,42.421 L140.744,38.799 L140.553,38.907 Z" id="Path"></path>
                <path d="M166.217,14.805 C163.065,14.805 160.508,16.396 158.823,19.407 C157.44,21.879 156.678,25.223 156.678,28.826 C156.678,34.163 158.065,43.116 167.35,43.116 C169.649,43.116 172.387,42.502 174.164,41.588 L174.249,41.544 L173.895,37.581 L173.692,37.729 C171.97,38.992 169.629,39.807 167.727,39.807 C161.423,39.807 160.656,33.058 160.634,29.993 L175.105,29.993 L175.105,28.285 C175.105,25.813 174.804,22.264 173.369,19.387 C171.854,16.346 169.448,14.805 166.217,14.805 Z M160.636,26.955 C160.676,23.455 162.205,18.059 166.217,18.059 C170.831,18.059 171.188,25.169 171.204,26.955 L160.636,26.955 L160.636,26.955 Z" id="Shape"></path>
                <rect id="Rectangle" x="180.763" y="15.345" width="3.793" height="27.176"></rect>
                <rect id="Rectangle" x="180.763" y="4.814" width="3.848" height="4.928"></rect>
                <path d="M202.071,14.805 C199.309,14.805 196.849,16.302 195.394,18.838 L195.296,15.345 L191.774,15.345 L191.777,15.49 C191.796,16.411 191.82,17.32 191.844,18.224 C191.891,19.934 191.939,21.702 191.939,23.479 L191.939,42.521 L195.732,42.521 L195.732,25.261 C195.732,22.338 197.448,18.221 201.261,18.221 C205.324,18.221 205.763,22.2 205.763,23.911 L205.763,42.52 L209.502,42.52 L209.502,23.856 C209.503,18.104 206.794,14.805 202.071,14.805 Z" id="Path"></path>
                <polygon id="Path" points="230.597 18.798 230.616 18.765 230.616 15.345 214.942 15.345 214.942 18.598 226.556 18.598 214.584 39.067 214.564 39.101 214.564 42.521 230.778 42.521 230.778 39.268 218.679 39.268"></polygon>
                <rect id="Rectangle" x="235.786" y="4.814" width="3.848" height="4.928"></rect>
                <rect id="Rectangle" x="235.786" y="15.345" width="3.793" height="27.176"></rect>
                <path d="M261.058,18.671 C259.516,16.07 257.385,14.805 254.557,14.805 C247.803,14.805 245.397,22.047 245.397,28.826 C245.397,31.364 245.718,35.009 247.25,37.956 C248.823,40.985 251.281,42.521 254.558,42.521 C257.206,42.521 259.388,41.27 260.897,38.894 L260.897,39.896 C260.897,44.462 260.897,51.364 254.289,51.364 C251.951,51.364 249.491,50.661 247.177,49.331 L246.985,49.221 L246.631,53.227 L246.739,53.261 C249.495,54.141 251.861,54.726 254.45,54.726 C261.054,54.726 264.69,50.054 264.69,41.571 L264.69,15.346 L261.059,15.346 L261.059,18.671 L261.058,18.671 Z M255.043,39.159 C251.339,39.159 249.46,35.682 249.46,28.825 C249.46,24.845 250.199,18.166 255.15,18.166 C260.242,18.166 261.003,24.845 261.003,28.825 C261.003,33.262 260.385,39.159 255.043,39.159 Z" id="Shape"></path>
                <path d="M288.395,36.547 L288.395,23.803 C288.395,17.916 285.339,14.805 279.559,14.805 C276.643,14.805 274.647,15.589 271.985,17.036 L271.903,17.081 L272.26,20.955 L272.468,20.779 C274.319,19.209 277.079,18.112 279.181,18.112 C282.916,18.112 284.656,20.091 284.656,24.342 L284.656,26.09 L283.069,26.09 C280.643,26.09 277.168,26.415 274.386,27.964 C271.525,29.558 270.074,32.064 270.074,35.412 C270.074,39.731 273.386,43.114 277.614,43.114 C280.651,43.114 282.768,41.906 284.84,38.966 L285.041,42.52 L288.677,42.52 L288.664,42.367 C288.48,40.228 288.395,38.378 288.395,36.547 Z M278.586,39.807 C275.871,39.807 273.976,37.955 273.976,35.305 C273.976,29.783 279.297,29.075 283.933,29.075 L284.656,29.075 L284.656,32.227 C284.655,35.877 282.756,39.807 278.586,39.807 Z" id="Shape"></path>
                <path d="M306.112,14.94 C305.862,14.877 305.58,14.804 305.316,14.804 C302.402,14.804 300.29,16.886 299.178,19.005 L299.081,15.344 L295.559,15.344 L295.562,15.489 C295.581,16.41 295.605,17.319 295.629,18.223 C295.676,19.933 295.724,21.701 295.724,23.478 L295.724,42.52 L299.517,42.52 L299.517,26.232 C299.517,20.71 302.942,18.652 305.1,18.652 C305.251,18.652 305.416,18.677 305.592,18.705 C305.77,18.731 305.953,18.76 306.125,18.76 L306.254,18.76 L306.603,15.045 L306.473,15.024 C306.363,15.005 306.241,14.974 306.112,14.94 Z" id="Path"></path>
                <path d="M320.528,38.907 C319.827,39.307 319.072,39.699 318.222,39.699 C315.801,39.699 315.609,38.075 315.609,35.952 L315.609,18.598 L320.902,18.598 L320.902,15.345 L315.609,15.345 L315.609,7.998 L311.965,9.25 L311.869,9.282 L311.869,15.344 L307.981,15.344 L307.981,18.597 L311.869,18.597 L311.869,37.032 C311.869,41.011 313.692,43.115 317.141,43.115 C318.444,43.115 319.803,42.882 320.969,42.458 L321.072,42.421 L320.718,38.799 L320.528,38.907 Z" id="Path"></path>
                <rect id="Rectangle" x="325.693" y="4.814" width="3.848" height="4.928"></rect>
                <rect id="Rectangle" x="325.693" y="15.345" width="3.793" height="27.176"></rect>
                <path d="M350.965,18.671 C349.423,16.07 347.292,14.805 344.464,14.805 C337.71,14.805 335.304,22.047 335.304,28.826 C335.304,31.364 335.625,35.009 337.157,37.956 C338.73,40.985 341.188,42.521 344.465,42.521 C347.113,42.521 349.295,41.27 350.804,38.894 L350.804,39.896 C350.804,44.462 350.804,51.364 344.196,51.364 C341.858,51.364 339.398,50.661 337.084,49.331 L336.892,49.221 L336.538,53.227 L336.646,53.261 C339.402,54.141 341.768,54.726 344.357,54.726 C350.961,54.726 354.597,50.054 354.597,41.571 L354.597,15.346 L350.966,15.346 L350.966,18.671 L350.965,18.671 Z M344.95,39.159 C341.246,39.159 339.367,35.682 339.367,28.825 C339.367,24.845 340.106,18.166 345.057,18.166 C350.149,18.166 350.91,24.845 350.91,28.825 C350.91,33.262 350.292,39.159 344.95,39.159 Z" id="Shape"></path>
                <path d="M369.897,14.805 C366.745,14.805 364.188,16.396 362.503,19.407 C361.12,21.879 360.358,25.223 360.358,28.826 C360.358,34.163 361.745,43.116 371.03,43.116 C373.329,43.116 376.067,42.502 377.844,41.588 L377.929,41.544 L377.575,37.581 L377.372,37.729 C375.65,38.992 373.309,39.807 371.407,39.807 C365.103,39.807 364.336,33.058 364.314,29.993 L378.785,29.993 L378.785,28.285 C378.785,25.813 378.484,22.264 377.049,19.387 C375.535,16.346 373.129,14.805 369.897,14.805 Z M364.316,26.955 C364.356,23.455 365.885,18.059 369.897,18.059 C374.511,18.059 374.868,25.169 374.884,26.955 L364.316,26.955 L364.316,26.955 Z" id="Shape"></path>
                <path d="M407.156,14.805 C404.516,14.805 402.422,16.082 400.763,18.705 L400.763,3.303 L396.97,3.303 L396.97,42.521 L400.543,42.521 L400.64,39.229 C402.128,41.775 404.353,43.116 407.102,43.116 C413.864,43.116 416.262,35.418 416.262,28.826 C416.263,25.536 415.606,14.805 407.156,14.805 Z M412.199,28.825 C412.199,31.388 411.789,39.754 406.509,39.754 C402.589,39.754 400.602,36.077 400.602,28.825 C400.602,19.205 404.733,18.166 406.509,18.166 C411.46,18.166 412.199,24.845 412.199,28.825 Z" id="Shape"></path>
                <path d="M429.998,14.805 C426.846,14.805 424.289,16.396 422.604,19.407 C421.221,21.879 420.459,25.223 420.459,28.826 C420.459,34.163 421.846,43.116 431.131,43.116 C433.43,43.116 436.168,42.502 437.945,41.588 L438.03,41.544 L437.676,37.581 L437.473,37.729 C435.751,38.992 433.41,39.807 431.508,39.807 C425.204,39.807 424.437,33.058 424.415,29.993 L438.886,29.993 L438.886,28.285 C438.886,25.813 438.585,22.264 437.15,19.387 C435.636,16.346 433.229,14.805 429.998,14.805 Z M424.417,26.955 C424.457,23.455 425.986,18.059 429.998,18.059 C434.612,18.059 434.969,25.169 434.985,26.955 L424.417,26.955 L424.417,26.955 Z" id="Shape"></path>
                <path d="M454.932,14.94 C454.682,14.877 454.4,14.804 454.136,14.804 C451.222,14.804 449.11,16.886 447.998,19.005 L447.901,15.344 L444.379,15.344 L444.382,15.489 C444.401,16.41 444.425,17.319 444.449,18.223 C444.496,19.933 444.544,21.701 444.544,23.478 L444.544,42.52 L448.337,42.52 L448.337,26.232 C448.337,20.71 451.762,18.652 453.92,18.652 C454.071,18.652 454.236,18.677 454.412,18.705 C454.59,18.731 454.773,18.76 454.945,18.76 L455.074,18.76 L455.423,15.045 L455.293,15.024 C455.183,15.005 455.061,14.974 454.932,14.94 Z" id="Path"></path>
                <path d="M477.181,39.144 C477.124,37.596 477.066,35.995 477.066,34.387 L477.066,15.345 L473.327,15.345 L473.327,32.605 C473.327,35.551 471.612,39.7 467.799,39.7 C466.157,39.7 463.404,38.954 463.404,33.955 L463.404,15.346 L459.61,15.346 L459.61,33.955 C459.61,39.777 462.319,43.116 467.043,43.116 C469.772,43.116 472.213,41.619 473.666,39.082 L473.763,42.521 L477.285,42.521 L477.282,42.376 C477.26,41.285 477.22,40.196 477.181,39.144 Z" id="Path"></path>
                <path d="M494.52,3.076 C493.916,2.929 493.231,2.763 492.421,2.763 C487.804,2.763 485.745,5.121 485.745,10.411 L485.745,15.345 L481.641,15.345 L481.641,18.598 L485.745,18.598 L485.745,42.521 L489.484,42.521 L489.484,18.598 L494.182,18.598 L494.182,15.345 L489.484,15.345 L489.484,10.141 C489.484,7.476 490.563,6.124 492.691,6.124 C493.328,6.124 493.945,6.258 494.634,6.546 L494.81,6.619 L495.166,3.224 L495.041,3.198 C494.871,3.162 494.698,3.119 494.52,3.076 Z" id="Path"></path>
                <path d="M515.351,28.284 C515.351,25.812 515.05,22.263 513.615,19.386 C512.099,16.346 509.693,14.805 506.462,14.805 C503.31,14.805 500.753,16.396 499.068,19.407 C497.685,21.879 496.923,25.223 496.923,28.826 C496.923,34.163 498.31,43.116 507.595,43.116 C509.894,43.116 512.632,42.502 514.409,41.588 L514.494,41.544 L514.14,37.581 L513.937,37.729 C512.215,38.992 509.874,39.807 507.972,39.807 C501.668,39.807 500.901,33.058 500.879,29.993 L515.35,29.993 L515.35,28.284 L515.351,28.284 Z M500.88,26.955 C500.92,23.455 502.449,18.059 506.461,18.059 C511.075,18.059 511.432,25.169 511.448,26.955 L500.88,26.955 L500.88,26.955 Z" id="Shape"></path>
            </g>
        </g>
    </g>
</svg>