<?xml version="1.0" encoding="UTF-8" standalone="no"?><!DOCTYPE svg PUBLIC "-//W3C//DTD SVG 1.1//EN" "http://www.w3.org/Graphics/SVG/1.1/DTD/svg11.dtd"><svg width="100%" height="100%" viewBox="0 0 32 32" version="1.1" xmlns="http://www.w3.org/2000/svg" xmlns:xlink="http://www.w3.org/1999/xlink" xml:space="preserve" xmlns:serif="http://www.serif.com/" style="fill-rule:evenodd;clip-rule:evenodd;stroke-linejoin:round;stroke-miterlimit:2;"><g id="Group-10"><path id="Fill-114" d="M0,32l32,0l0,-32l-32,0l0,32Z" style="fill:#e3e2e4;"/><path id="Youtube_1" d="M21.081,11.291l-1.206,-0.144c-2.906,-0.359 -5.844,-0.359 -8.75,0l-1.188,0.15c-1.095,0.129 -1.932,1.066 -1.937,2.169l0,6.063c0.004,1.097 0.83,2.031 1.919,2.168l1.187,0.15c1.458,0.182 2.925,0.274 4.394,0.275c1.463,-0.001 2.924,-0.093 4.375,-0.275l1.188,-0.15c1.095,-0.129 1.932,-1.065 1.937,-2.168l0,-6.063c-0.001,-1.099 -0.828,-2.037 -1.919,-2.175Zm-2.6,5.469l-4.375,2.812c-0.05,0.033 -0.109,0.05 -0.168,0.05c-0.172,0 -0.313,-0.141 -0.313,-0.312l0,-5.625c0,-0.171 0.141,-0.312 0.312,-0.312c0.06,0 0.119,0.017 0.169,0.049l4.375,2.813c0.089,0.057 0.143,0.156 0.143,0.262c0,0.106 -0.054,0.205 -0.143,0.263Z" style="fill:#444;fill-rule:nonzero;"/></g></svg>